<?xml version="1.0" encoding="UTF-8" standalone="no"?>
<!-- Created with Inkscape (http://www.inkscape.org/) -->

<svg
   width="32"
   height="32"
   viewBox="0 0 8.4666666 8.4666666"
   version="1.1"
   id="svg5"
   inkscape:export-filename="icon.png"
   inkscape:export-xdpi="384"
   inkscape:export-ydpi="384"
   inkscape:version="1.2.2 (b0a8486541, 2022-12-01)"
   sodipodi:docname="icon.svg"
   xmlns:inkscape="http://www.inkscape.org/namespaces/inkscape"
   xmlns:sodipodi="http://sodipodi.sourceforge.net/DTD/sodipodi-0.dtd"
   xmlns="http://www.w3.org/2000/svg"
   xmlns:svg="http://www.w3.org/2000/svg">
  <sodipodi:namedview
     id="namedview7"
     pagecolor="#505050"
     bordercolor="#eeeeee"
     borderopacity="1"
     inkscape:showpageshadow="0"
     inkscape:pageopacity="0"
     inkscape:pagecheckerboard="0"
     inkscape:deskcolor="#505050"
     inkscape:document-units="mm"
     showgrid="false"
     inkscape:zoom="16.287423"
     inkscape:cx="16.914892"
     inkscape:cy="19.708459"
     inkscape:window-width="1920"
     inkscape:window-height="1011"
     inkscape:window-x="0"
     inkscape:window-y="0"
     inkscape:window-maximized="1"
     inkscape:current-layer="layer1">
    <inkscape:grid
       type="xygrid"
       id="grid132"
       empspacing="4" />
  </sodipodi:namedview>
  <defs
     id="defs2" />
  <g
     inkscape:label="Layer 1"
     inkscape:groupmode="layer"
     id="layer1">
    <rect
       style="fill:#eeeeee;fill-opacity:1;stroke-width:0.264583;stroke-miterlimit:2.7"
       id="rect236"
       width="8.4666662"
       height="8.4666662"
       x="0"
       y="0"
       ry="1.0583333" />
    <path
       id="path2293"
       style="fill:#d5d3d9;fill-opacity:1;stroke-width:0.264583;stroke-miterlimit:2.7"
       d="M 3.175 1.0583333 L 1.0583333 7.4083333 L 2.1166667 8.4666667 L 7.4083333 8.4666667 C 7.9946494 8.4666667 8.4666667 7.9946494 8.4666667 7.4083333 L 8.4666667 3.96875 L 7.4083333 2.9104167 L 6.0854167 2.9104167 L 4.2333333 1.0583333 L 3.175 1.0583333 z " />
    <path
       style="fill:#105bf1;fill-opacity:1;stroke-width:0.264583;stroke-miterlimit:2.7"
       d="m 4.2333333,4.2333333 v 1.5875 a 1.5875,1.5875 0 0 0 1.5875,1.5875 1.5875,1.5875 0 0 0 1.5875,-1.5875 v -1.5875 H 6.35 v 1.5740642 a 0.52916664,0.52916664 0 0 0 0,5.167e-4 0.52916664,0.52916664 0 0 0 0,5.168e-4 0.52916664,0.52916664 0 0 0 0,5.168e-4 0.52916664,0.52916664 0 0 0 0,5.167e-4 0.52916664,0.52916664 0 0 0 0,5.168e-4 0.52916664,0.52916664 0 0 0 0,5.167e-4 0.52916664,0.52916664 0 0 0 0,5.168e-4 0.52916664,0.52916664 0 0 0 0,5.168e-4 0.52916664,0.52916664 0 0 0 0,5.167e-4 0.52916664,0.52916664 0 0 0 0,5.168e-4 0.52916664,0.52916664 0 0 0 0,5.168e-4 0.52916664,0.52916664 0 0 0 0,5.167e-4 0.52916664,0.52916664 0 0 0 0,5.168e-4 0.52916664,0.52916664 0 0 0 0,5.168e-4 0.52916664,0.52916664 0 0 0 0,5.167e-4 0.52916664,0.52916664 0 0 0 0,5.168e-4 0.52916664,0.52916664 0 0 0 0,5.168e-4 0.52916664,0.52916664 0 0 0 0,5.167e-4 0.52916664,0.52916664 0 0 0 0,5.168e-4 0.52916664,0.52916664 0 0 0 0,5.167e-4 0.52916664,0.52916664 0 0 0 0,5.168e-4 0.52916664,0.52916664 0 0 0 0,5.168e-4 0.52916664,0.52916664 0 0 0 0,5.167e-4 0.52916664,0.52916664 0 0 0 0,5.168e-4 0.52916664,0.52916664 0 0 0 0,5.168e-4 0.52916664,0.52916664 0 0 0 0,5.167e-4 A 0.52916664,0.52916664 0 0 1 5.8208333,6.35 0.52916664,0.52916664 0 0 1 5.2916667,5.8208333 v -1.5875 z"
       id="path4543" />
    <path
       style="fill:#105bf1;fill-opacity:1;stroke-width:0.264583;stroke-miterlimit:2.7"
       d="m 4.2333333,2.9104167 v 0.79375 h 3.175 v -0.79375 z"
       id="path4541" />
    <path
       style="fill:#d12110;fill-opacity:1;stroke-width:0.264583;stroke-miterlimit:2.7"
       d="m 3.175,1.0583333 -2.1166667,6.35 h 1.0583334 l 2.1166666,-6.35 z"
       id="path898" />
  </g>
</svg>
